<?xml version="1.0" encoding="iso-8859-1"?>
<!-- Generator: Adobe Illustrator 19.0.0, SVG Export Plug-In . SVG Version: 6.00 Build 0)  -->
<svg version="1.1" id="Layer_1" xmlns="http://www.w3.org/2000/svg" xmlns:xlink="http://www.w3.org/1999/xlink" x="0px" y="0px"
	 viewBox="0 0 512 512" style="enable-background:new 0 0 512 512;" xml:space="preserve">
<circle style="fill:#FFEDB5;" cx="256" cy="256" r="256"/>
<path style="fill:#FEE187;" d="M512,256c0-3.622-0.095-7.22-0.243-10.804L367.875,101.314L262.68,120.458l-6.68-6.68l-3.458,8.525
	l-109.458,19.92v80.162l-0.646-0.646l-0.215,176.485L256,512C397.384,512,512,397.384,512,256z"/>
<rect x="273.239" y="107.553" transform="matrix(-0.9914 0.1311 -0.1311 -0.9914 690.1548 454.1238)" style="fill:#C92F00;" width="113.781" height="284.453"/>
<polygon style="fill:#930000;" points="367.875,101.314 306.907,109.378 347.988,390.866 405.176,383.302 "/>
<rect x="142.222" y="113.778" style="fill:#386895;" width="113.778" height="284.444"/>
<g>
	<rect x="198.973" y="113.778" style="fill:#273B7A;" width="57.027" height="284.444"/>
	<circle style="fill:#273B7A;" cx="199.111" cy="341.333" r="28.444"/>
</g>
<path style="fill:#121149;" d="M199.111,312.889c-0.048,0-0.095,0.007-0.143,0.007v56.875c0.048,0,0.095,0.007,0.143,0.007
	c15.71,0,28.444-12.734,28.444-28.444S214.821,312.889,199.111,312.889z"/>
<circle style="fill:#D35933;" cx="341.333" cy="341.333" r="28.444"/>
<path style="fill:#B54324;" d="M369.778,341.333c0-15.71-12.734-28.444-28.444-28.444c-1.593,0-3.144,0.164-4.665,0.415l8.206,56.23
	C358.909,367.787,369.778,355.84,369.778,341.333z"/>
<rect x="170.667" y="142.222" style="fill:#71E2EF;" width="56.889" height="142.222"/>
<rect x="198.973" y="142.222" style="fill:#38C6D9;" width="28.588" height="142.222"/>
<rect x="294.784" y="138.33" transform="matrix(-0.9906 0.1366 -0.1366 -0.9906 672.0359 372.762)" style="fill:#FEE187;" width="56.887" height="142.219"/>
<polygon style="fill:#FFC61B;" points="341.699,135.125 311.275,139.319 331.816,280.055 361.122,276.015 "/>
<g>
</g>
<g>
</g>
<g>
</g>
<g>
</g>
<g>
</g>
<g>
</g>
<g>
</g>
<g>
</g>
<g>
</g>
<g>
</g>
<g>
</g>
<g>
</g>
<g>
</g>
<g>
</g>
<g>
</g>
</svg>
