<?xml version="1.0" encoding="iso-8859-1"?>
<!-- Generator: Adobe Illustrator 19.0.0, SVG Export Plug-In . SVG Version: 6.00 Build 0)  -->
<svg version="1.1" id="Layer_1" xmlns="http://www.w3.org/2000/svg" xmlns:xlink="http://www.w3.org/1999/xlink" x="0px" y="0px"
	 viewBox="0 0 512 512" style="enable-background:new 0 0 512 512;" xml:space="preserve">
<circle style="fill:#386895;" cx="256" cy="256" r="256"/>
<path style="fill:#273B7A;" d="M510.89,279.79L361.505,130.405L239.911,301.971l-102.617,70.392l138.85,138.85
	C400.246,501.553,499.497,403.397,510.89,279.79z"/>
<polygon style="fill:#FFC61B;" points="199.189,187.683 374.165,187.683 374.165,237.677 174.192,237.677 "/>
<rect x="150.497" y="130.396" style="fill:#FFFFFF;" width="211.006" height="150.721"/>
<rect x="252.552" y="130.396" style="fill:#D0D1D3;" width="108.951" height="150.721"/>
<path style="fill:#FFC61B;" d="M231.003,206.619l-24.997-24.997h-74.99v173.715c0,14.503,11.757,26.259,26.259,26.259h197.448
	c14.503,0,26.259-11.757,26.259-26.259V206.619H231.003z"/>
<path style="fill:#EAA22F;" d="M252.552,206.619v174.976h102.171c14.503,0,26.259-11.757,26.259-26.259V206.619L252.552,206.619
	L252.552,206.619z"/>
<rect x="305.993" y="331.593" style="fill:#FF5419;" width="49.993" height="24.997"/>
<g>
</g>
<g>
</g>
<g>
</g>
<g>
</g>
<g>
</g>
<g>
</g>
<g>
</g>
<g>
</g>
<g>
</g>
<g>
</g>
<g>
</g>
<g>
</g>
<g>
</g>
<g>
</g>
<g>
</g>
</svg>
