<?xml version="1.0" encoding="iso-8859-1"?>
<!-- Generator: Adobe Illustrator 19.0.0, SVG Export Plug-In . SVG Version: 6.00 Build 0)  -->
<svg version="1.1" id="Layer_1" xmlns="http://www.w3.org/2000/svg" xmlns:xlink="http://www.w3.org/1999/xlink" x="0px" y="0px"
	 viewBox="0 0 512.002 512.002" style="enable-background:new 0 0 512.002 512.002;" xml:space="preserve">
<circle style="fill:#FFC61B;" cx="256.001" cy="256" r="256"/>
<path style="fill:#EAA22F;" d="M512.001,256c0-1.376-0.031-2.744-0.052-4.117L395.46,135.396l-40.369-28.944l-40.189-22.195h-17.324
	l-20.813-20.813l-31.108,12.121l-44.463,10.054l-12.426,3.737l-17.17,5.672l-62.057,60.34L85.91,195.089l-5.534,20.975
	l-3.101,10.221l-1.277,7.592l-4.455,15.803l-10.967,24.762l21.476,21.116l43.698,90.912l126.336,125.481
	c1.305,0.019,2.607,0.05,3.915,0.05C397.385,512,512.001,397.384,512.001,256z"/>
<path style="fill:#386895;" d="M256.001,118.949c-75.571,0-137.05,61.48-137.05,137.051s61.48,137.051,137.05,137.051
	S393.051,331.571,393.051,256S331.572,118.949,256.001,118.949z M325.326,245.657c-0.362-9.995-1.241-19.782-2.624-29.212
	c23.592,7.306,40.091,18.079,46.582,29.212H325.326z M304.629,245.657h-38.284v-38.285c12.335,0.476,23.898,1.786,34.528,3.758
	C302.843,221.758,304.153,233.324,304.629,245.657z M266.344,186.675v-43.958c11.133,6.491,21.906,22.99,29.212,46.582
	C286.126,187.916,276.34,187.039,266.344,186.675z M245.657,142.717v43.958c-9.995,0.362-19.782,1.241-29.212,2.624
	C223.752,165.709,234.524,149.207,245.657,142.717z M245.657,207.372v38.285h-38.285c0.476-12.333,1.786-23.899,3.758-34.528
	C221.759,209.158,233.323,207.848,245.657,207.372z M186.676,245.657h-43.958c6.491-11.133,22.99-21.906,46.582-29.212
	C187.917,225.875,187.039,235.661,186.676,245.657z M186.676,266.343c0.362,9.995,1.241,19.782,2.624,29.212
	c-23.592-7.306-40.091-18.079-46.582-29.212H186.676z M207.373,266.343h38.285v38.285c-12.335-0.476-23.899-1.786-34.528-3.758
	C209.159,290.242,207.849,278.676,207.373,266.343z M245.657,325.325v43.958c-11.133-6.491-21.906-22.99-29.212-46.582
	C225.876,324.084,235.662,324.961,245.657,325.325z M266.344,369.283v-43.958c9.995-0.362,19.782-1.241,29.212-2.624
	C288.25,346.291,277.477,362.793,266.344,369.283z M266.344,304.628v-38.284h38.285c-0.476,12.333-1.786,23.899-3.758,34.528
	C290.243,302.842,278.679,304.152,266.344,304.628z M325.326,266.343h43.958c-6.491,11.133-22.99,21.906-46.582,29.212
	C324.085,286.125,324.962,276.339,325.326,266.343z M363.835,212.34c-4.203-2.679-8.82-5.21-13.86-7.564
	c-9.531-4.451-20.218-8.147-31.723-11.026c-2.879-11.505-6.575-22.192-11.026-31.723c-2.355-5.041-4.886-9.657-7.565-13.86
	C328.755,159.991,352.01,183.246,363.835,212.34z M212.341,148.166c-2.679,4.203-5.21,8.819-7.564,13.86
	c-4.453,9.531-8.147,20.218-11.026,31.723c-11.505,2.879-22.192,6.575-31.723,11.026c-5.041,2.355-9.657,4.886-13.86,7.564
	C159.991,183.246,183.247,159.991,212.341,148.166z M148.167,299.66c4.203,2.679,8.819,5.21,13.86,7.564
	c9.531,4.451,20.218,8.147,31.723,11.026c2.879,11.505,6.575,22.192,11.026,31.723c2.355,5.041,4.886,9.657,7.564,13.86
	C183.247,352.009,159.991,328.754,148.167,299.66z M299.66,363.834c2.679-4.203,5.21-8.819,7.565-13.86
	c4.453-9.531,8.147-20.218,11.026-31.723c11.505-2.879,22.192-6.575,31.723-11.026c5.041-2.355,9.657-4.886,13.86-7.564
	C352.01,328.754,328.755,352.009,299.66,363.834z"/>
<path style="fill:#273B7A;" d="M256.001,118.949c-0.193,0-0.381,0.014-0.574,0.014v274.072c0.193,0,0.381,0.014,0.574,0.014
	c75.571,0,137.051-61.48,137.051-137.051S331.572,118.949,256.001,118.949z M363.835,212.34c-4.203-2.679-8.82-5.21-13.86-7.564
	c-9.531-4.451-20.218-8.147-31.723-11.026c-2.879-11.505-6.575-22.192-11.026-31.723c-2.355-5.041-4.886-9.657-7.565-13.86
	C328.755,159.991,352.01,183.246,363.835,212.34z M369.284,245.657h-43.958c-0.362-9.995-1.241-19.782-2.624-29.212
	C346.292,223.751,362.793,234.524,369.284,245.657z M266.344,142.717c11.133,6.491,21.906,22.99,29.212,46.582
	c-9.43-1.383-19.216-2.26-29.212-2.624V142.717z M266.344,207.372c12.335,0.476,23.898,1.786,34.528,3.758
	c1.97,10.63,3.282,22.194,3.758,34.528h-38.286V207.372z M266.344,266.343h38.285c-0.476,12.333-1.786,23.899-3.758,34.528
	c-10.63,1.97-22.194,3.282-34.528,3.758v-38.286H266.344z M266.344,369.283v-43.958c9.995-0.362,19.782-1.241,29.212-2.624
	C288.25,346.291,277.477,362.793,266.344,369.283z M299.66,363.834c2.679-4.203,5.21-8.819,7.565-13.86
	c4.453-9.531,8.147-20.218,11.026-31.723c11.505-2.879,22.192-6.575,31.723-11.026c5.041-2.355,9.657-4.886,13.86-7.564
	C352.01,328.754,328.755,352.009,299.66,363.834z M322.702,295.555c1.383-9.431,2.262-19.216,2.624-29.212h43.958
	C362.793,277.476,346.292,288.249,322.702,295.555z"/>
<path style="fill:#D35933;" d="M459.422,256c0-12.376-8.897-22.657-20.64-24.84c-11.071-81.879-76.062-146.87-157.941-157.941
	c-2.182-11.743-12.464-20.642-24.84-20.642s-22.657,8.897-24.84,20.642C149.283,84.29,84.291,149.282,73.22,231.16
	c-11.743,2.182-20.642,12.464-20.642,24.84c0,12.376,8.897,22.657,20.642,24.84c11.071,81.879,76.062,146.87,157.941,157.941
	c2.182,11.743,12.464,20.642,24.84,20.642s22.657-8.897,24.84-20.642c81.879-11.071,146.87-76.062,157.941-157.941
	C450.525,278.657,459.422,268.376,459.422,256z M280.167,426.689c-3.179-10.328-12.795-17.836-24.166-17.836
	c-11.371,0-20.985,7.508-24.166,17.836c-75.757-10.674-135.849-70.766-146.523-146.523c10.328-3.179,17.836-12.795,17.836-24.166
	c0-11.371-7.508-20.985-17.836-24.166c10.674-75.757,70.766-135.849,146.523-146.523c3.179,10.328,12.795,17.836,24.166,17.836
	c11.371,0,20.985-7.508,24.166-17.836c75.757,10.674,135.849,70.766,146.523,146.523c-10.328,3.179-17.836,12.795-17.836,24.166
	c0,11.371,7.508,20.985,17.836,24.166C416.016,355.923,355.924,416.015,280.167,426.689z"/>
<path style="fill:#B54324;" d="M438.781,231.16C427.71,149.282,362.719,84.29,280.841,73.219
	c-2.182-11.743-12.464-20.642-24.84-20.642c-0.193,0-0.381,0.021-0.574,0.026v50.521c0.193,0.005,0.381,0.024,0.574,0.024
	c11.371,0,20.985-7.508,24.166-17.836c75.757,10.674,135.849,70.766,146.523,146.523c-10.328,3.179-17.836,12.795-17.836,24.166
	c0,11.371,7.508,20.985,17.836,24.166c-10.674,75.757-70.766,135.849-146.523,146.523c-3.179-10.328-12.795-17.836-24.166-17.836
	c-0.193,0-0.381,0.019-0.574,0.024v50.519c0.193,0.005,0.381,0.026,0.574,0.026c12.376,0,22.657-8.897,24.84-20.642
	c81.879-11.071,146.87-76.062,157.941-157.941c11.743-2.182,20.642-12.464,20.642-24.84
	C459.422,243.624,450.525,233.343,438.781,231.16z"/>
<g>
</g>
<g>
</g>
<g>
</g>
<g>
</g>
<g>
</g>
<g>
</g>
<g>
</g>
<g>
</g>
<g>
</g>
<g>
</g>
<g>
</g>
<g>
</g>
<g>
</g>
<g>
</g>
<g>
</g>
</svg>
