<?xml version="1.0" encoding="iso-8859-1"?>
<!-- Generator: Adobe Illustrator 19.0.0, SVG Export Plug-In . SVG Version: 6.00 Build 0)  -->
<svg version="1.1" id="Layer_1" xmlns="http://www.w3.org/2000/svg" xmlns:xlink="http://www.w3.org/1999/xlink" x="0px" y="0px"
	 viewBox="0 0 512 512" style="enable-background:new 0 0 512 512;" xml:space="preserve">
<circle style="fill:#B54324;" cx="256" cy="256" r="256"/>
<path style="fill:#930000;" d="M283.462,510.531C411.932,496.828,512,388.106,512,256c0-46.418-12.355-89.952-33.954-127.49
	l-94.555-94.555l-42.491,110.378L202.321,5.654l0,0l-5.292,176.002l82.539,82.539l-108.901,11.629l76.136,76.138l-2.038,0.667
	l-87.035-87.035l-4.175,3.782l0.148,0.148l-2.067,2.164l83.947,83.947l-37.464,12.269l-56.739-56.741l-2.276,0.329l-0.472-0.472
	l-20.885,2.155l39.881,39.881l-16.975,14.662L283.462,510.531z"/>
<path style="fill:#386895;" d="M127.936,34.294l72.84,256.952h84.38L202.321,5.654C175.768,11.321,150.738,21.094,127.936,34.294z"
	/>
<path style="fill:#273B7A;" d="M229.743,291.247h80.787l72.957-257.291c-21.873-12.586-45.787-22.019-71.115-27.714L229.743,291.247
	z"/>
<path style="fill:#FFC61B;" d="M390.465,315.475h-15.536c-2.381,0-4.31-1.929-4.31-4.31s1.929-4.31,4.31-4.31h15.536
	c2.381,0,4.31,1.929,4.31,4.31S392.845,315.475,390.465,315.475z"/>
<path style="fill:#FEE187;" d="M137.071,315.475h-15.536c-2.381,0-4.31-1.929-4.31-4.31s1.929-4.31,4.31-4.31h15.536
	c2.381,0,4.31,1.929,4.31,4.31S139.452,315.475,137.071,315.475z"/>
<path style="fill:#FFC61B;" d="M368.302,368.983c-1.103,0-2.205-0.421-3.048-1.262l-10.985-10.985c-1.684-1.684-1.684-4.411,0-6.094
	s4.411-1.684,6.094,0l10.985,10.985c1.684,1.684,1.684,4.411,0,6.094C370.507,368.562,369.404,368.983,368.302,368.983z"/>
<path style="fill:#FEE187;" d="M154.684,272.951c-1.103,0-2.205-0.421-3.048-1.262l-10.983-10.985c-1.684-1.684-1.684-4.413,0-6.094
	c1.684-1.684,4.411-1.684,6.094,0l10.983,10.985c1.684,1.684,1.684,4.413,0,6.094C156.889,272.531,155.786,272.951,154.684,272.951z
	"/>
<path style="fill:#FFC61B;" d="M357.316,272.951c-1.103,0-2.205-0.421-3.048-1.262c-1.684-1.684-1.684-4.411,0-6.094l10.985-10.985
	c1.684-1.684,4.411-1.684,6.094,0c1.683,1.684,1.684,4.411,0,6.094l-10.985,10.985C359.522,272.531,358.419,272.951,357.316,272.951
	z"/>
<path style="fill:#FEE187;" d="M143.698,368.983c-1.103,0-2.205-0.421-3.048-1.262c-1.684-1.684-1.684-4.411,0-6.094l10.985-10.985
	c1.684-1.684,4.411-1.684,6.094,0s1.684,4.411,0,6.094l-10.985,10.985C145.904,368.562,144.801,368.983,143.698,368.983z"/>
<rect x="170.667" y="218.936" style="fill:#EAA22F;" width="170.667" height="56.889"/>
<rect x="256.293" y="218.936" style="fill:#E09112;" width="85.04" height="56.889"/>
<circle style="fill:#FFEDB5;" cx="256" cy="312.889" r="85.333"/>
<path style="fill:#FEE187;" d="M341.333,312.889c0-47.032-38.05-85.17-85.045-85.326v170.653
	C303.283,398.058,341.333,359.92,341.333,312.889z"/>
<circle style="fill:#FFC61B;" cx="256" cy="312.889" r="56.889"/>
<path style="fill:#EAA22F;" d="M312.889,312.889c0-31.322-25.316-56.725-56.601-56.882v113.764
	C287.573,369.614,312.889,344.211,312.889,312.889z"/>
<g>
</g>
<g>
</g>
<g>
</g>
<g>
</g>
<g>
</g>
<g>
</g>
<g>
</g>
<g>
</g>
<g>
</g>
<g>
</g>
<g>
</g>
<g>
</g>
<g>
</g>
<g>
</g>
<g>
</g>
</svg>
