<?xml version="1.0" encoding="iso-8859-1"?>
<!-- Generator: Adobe Illustrator 19.0.0, SVG Export Plug-In . SVG Version: 6.00 Build 0)  -->
<svg version="1.1" id="Layer_1" xmlns="http://www.w3.org/2000/svg" xmlns:xlink="http://www.w3.org/1999/xlink" x="0px" y="0px"
	 viewBox="0 0 512 512" style="enable-background:new 0 0 512 512;" xml:space="preserve">
<circle style="fill:#273B7A;" cx="256" cy="256" r="256"/>
<path style="fill:#121149;" d="M304.388,507.413c116.457-22.281,204.893-123.451,207.541-245.769L380.575,130.289L186.756,286.168
	l-56.377,28.189l74.855,74.855l-13.326,5.72L304.388,507.413z"/>
<rect x="205.714" y="305.7" style="fill:#A6A8AA;" width="100.573" height="65.077"/>
<rect x="256" y="305.7" style="fill:#808183;" width="50.286" height="65.077"/>
<path style="fill:#D0D1D3;" d="M368.078,320.488H143.922c-9.983,0-18.077-8.094-18.077-18.077V143.332
	c0-9.983,8.094-18.077,18.077-18.077h224.156c9.983,0,18.077,8.094,18.077,18.077v159.079
	C386.155,312.394,378.061,320.488,368.078,320.488z"/>
<path style="fill:#A6A8AA;" d="M368.078,125.256H256v195.232h112.078c9.983,0,18.077-8.094,18.077-18.077V143.332
	C386.155,133.349,378.061,125.256,368.078,125.256z"/>
<rect x="140.636" y="141.033" style="fill:#FFFFFF;" width="230.728" height="163.685"/>
<g>
	<rect x="256" y="141.033" style="fill:#D0D1D3;" width="115.364" height="163.685"/>
	<rect x="191.905" y="356.469" style="fill:#D0D1D3;" width="128.19" height="38.455"/>
</g>
<rect x="256" y="356.469" style="fill:#A6A8AA;" width="64.095" height="38.455"/>
<circle style="fill:#930000;" cx="312.889" cy="227.556" r="28.444"/>
<path style="fill:#770303;" d="M284.458,227.268c0,0.097-0.014,0.191-0.014,0.288c0,15.71,12.734,28.444,28.444,28.444
	s28.444-12.734,28.444-28.444c0-0.097-0.014-0.191-0.014-0.288H284.458z"/>
<path style="fill:#386895;" d="M265.69,223.899l-12.067-12.067c-2.02-2.02-5.292-2.02-7.313,0c-2.02,2.019-2.02,5.294,0,7.313
	l3.239,3.239h-21.994c-2.857,0-5.172,2.315-5.172,5.172c0,2.857,2.315,5.172,5.172,5.172h21.994l-3.239,3.239
	c-2.02,2.019-2.02,5.294,0,7.313c1.01,1.01,2.334,1.515,3.656,1.515s2.646-0.505,3.656-1.515l12.067-12.067
	C267.71,229.193,267.71,225.918,265.69,223.899z"/>
<path style="fill:#273B7A;" d="M222.413,227.268c-0.005,0.098-0.029,0.19-0.029,0.288c0,2.857,2.315,5.172,5.172,5.172h21.994
	l-3.239,3.239c-2.02,2.019-2.02,5.294,0,7.313c1.01,1.01,2.334,1.515,3.656,1.515s2.646-0.505,3.656-1.515l12.067-12.067
	c1.084-1.083,1.567-2.526,1.488-3.944L222.413,227.268L222.413,227.268z"/>
<circle style="fill:#EAA22F;" cx="199.111" cy="227.556" r="28.444"/>
<path style="fill:#E09112;" d="M170.68,227.268c0,0.097-0.014,0.191-0.014,0.288c0,15.71,12.734,28.444,28.444,28.444
	s28.444-12.734,28.444-28.444c0-0.097-0.014-0.191-0.014-0.288H170.68z"/>
<g>
</g>
<g>
</g>
<g>
</g>
<g>
</g>
<g>
</g>
<g>
</g>
<g>
</g>
<g>
</g>
<g>
</g>
<g>
</g>
<g>
</g>
<g>
</g>
<g>
</g>
<g>
</g>
<g>
</g>
</svg>
