<?xml version="1.0" encoding="iso-8859-1"?>
<!-- Generator: Adobe Illustrator 19.0.0, SVG Export Plug-In . SVG Version: 6.00 Build 0)  -->
<svg version="1.1" id="Layer_1" xmlns="http://www.w3.org/2000/svg" xmlns:xlink="http://www.w3.org/1999/xlink" x="0px" y="0px"
	 viewBox="0 0 512 512" style="enable-background:new 0 0 512 512;" xml:space="preserve">
<circle style="fill:#E09112;" cx="256" cy="256" r="256"/>
<path style="fill:#FF5419;" d="M266.936,511.752c132.691-5.579,239.251-112.147,244.817-244.841L359.946,115.103l-20.016,19.373
	l-40.867-40.991l-12.809,6.035l-16.281-16.639l-29.92,8.916l70.811,70.811L215.2,262.465l-18.675,30.887L150.583,395.4
	L266.936,511.752z"/>
<path style="fill:#386895;" d="M355.95,398.222H156.05c-3.71,0-6.716-3.006-6.716-6.716V120.494c0-3.71,3.007-6.716,6.716-6.716
	H355.95c3.71,0,6.716,3.006,6.716,6.716v271.012C362.667,395.216,359.66,398.222,355.95,398.222z"/>
<path style="fill:#273B7A;" d="M355.95,113.778H256v284.444h99.95c3.71,0,6.716-3.006,6.716-6.716V120.494
	C362.667,116.784,359.66,113.778,355.95,113.778z"/>
<rect x="160.323" y="124.121" style="fill:#FFEDB5;" width="191.354" height="260.31"/>
<rect x="256" y="124.121" style="fill:#FEE187;" width="95.677" height="260.31"/>
<path style="fill:#FFC61B;" d="M274.341,90.936c-2.108-8.175-9.509-14.222-18.341-14.222s-16.234,6.047-18.341,14.222h-18.579
	c-4.841,0-8.764,3.924-8.764,8.763v28.157c0,4.841,3.924,8.764,8.764,8.764h73.84c4.841,0,8.763-3.924,8.763-8.764V99.699
	c0-4.841-3.924-8.763-8.763-8.763H274.341z M256,101.71c-3.332,0-6.034-2.701-6.034-6.034s2.701-6.034,6.034-6.034
	s6.034,2.701,6.034,6.034S259.332,101.71,256,101.71z"/>
<path style="fill:#EAA22F;" d="M292.919,90.936h-18.579c-2.108-8.175-9.509-14.222-18.341-14.222v12.929
	c3.332,0,6.034,2.701,6.034,6.034s-2.701,6.034-6.034,6.034v34.909h36.919c4.841,0,8.763-3.924,8.763-8.763V99.699
	C301.684,94.86,297.76,90.936,292.919,90.936z"/>
<rect x="170.667" y="170.667" style="fill:#FFFFFF;" width="170.667" height="28.444"/>
<rect x="256" y="170.667" style="fill:#D0D1D3;" width="85.333" height="28.444"/>
<rect x="170.667" y="170.667" style="fill:#D35933;" width="48.769" height="28.444"/>
<rect x="170.667" y="256" style="fill:#FFFFFF;" width="170.667" height="28.444"/>
<rect x="219.436" y="256" style="fill:#FFC61B;" width="48.769" height="28.444"/>
<rect x="243.812" y="256" style="fill:#FF5419;" width="97.521" height="28.444"/>
<rect x="256" y="256" style="fill:#C92F00;" width="85.333" height="28.444"/>
<rect x="170.667" y="214.195" style="fill:#FFFFFF;" width="170.667" height="28.444"/>
<rect x="243.812" y="214.195" style="fill:#FF314F;" width="48.769" height="28.444"/>
<rect x="256" y="214.195" style="fill:#A30F44;" width="36.564" height="28.444"/>
<rect x="219.436" y="214.195" style="fill:#FFC61B;" width="24.376" height="28.444"/>
<rect x="170.667" y="341.333" style="fill:#C92F00;" width="170.667" height="28.444"/>
<rect x="219.436" y="341.333" style="fill:#FFC61B;" width="48.769" height="28.444"/>
<rect x="243.812" y="341.333" style="fill:#FFFFFF;" width="97.521" height="28.444"/>
<rect x="255.707" y="341.333" style="fill:#D0D1D3;" width="85.619" height="28.444"/>
<rect x="170.667" y="299.529" style="fill:#FFC61B;" width="170.667" height="28.444"/>
<rect x="243.812" y="299.529" style="fill:#FF314F;" width="48.769" height="28.444"/>
<rect x="255.707" y="299.529" style="fill:#A30F44;" width="36.859" height="28.444"/>
<rect x="219.436" y="299.529" style="fill:#FFFFFF;" width="24.376" height="28.444"/>
<g>
</g>
<g>
</g>
<g>
</g>
<g>
</g>
<g>
</g>
<g>
</g>
<g>
</g>
<g>
</g>
<g>
</g>
<g>
</g>
<g>
</g>
<g>
</g>
<g>
</g>
<g>
</g>
<g>
</g>
</svg>
