<?xml version="1.0" encoding="iso-8859-1"?>
<!-- Generator: Adobe Illustrator 19.0.0, SVG Export Plug-In . SVG Version: 6.00 Build 0)  -->
<svg version="1.1" id="Layer_1" xmlns="http://www.w3.org/2000/svg" xmlns:xlink="http://www.w3.org/1999/xlink" x="0px" y="0px"
	 viewBox="0 0 512 512" style="enable-background:new 0 0 512 512;" xml:space="preserve">
<circle style="fill:#FFEDB5;" cx="256" cy="256" r="256"/>
<path style="fill:#FEE187;" d="M309.962,506.284c107.706-23.112,190.254-113.967,200.866-225.801l-141.05-141.052l-20.082,36.807
	l-65.252-65.252l-51.429,28.444L85.333,182.098L230.29,327.054l-2.734,96.821L309.962,506.284z"/>
<rect x="227.556" y="110.985" style="fill:#273B7A;" width="56.889" height="312.889"/>
<rect x="256.724" y="110.985" style="fill:#121149;" width="27.72" height="312.889"/>
<polygon style="fill:#FF5419;" points="369.778,224.765 142.222,224.765 85.333,182.098 142.222,139.431 369.778,139.431 "/>
<polygon style="fill:#C92F00;" points="85.333,182.098 142.222,224.765 369.778,224.765 369.778,182.098 "/>
<polygon style="fill:#EAA22F;" points="258.112,236.691 392.956,236.691 426.667,261.973 392.956,287.256 258.112,287.256 "/>
<polygon style="fill:#E09112;" points="258.112,261.398 258.112,287.256 392.956,287.256 426.667,261.973 425.9,261.398 "/>
<polygon style="fill:#EAA22F;" points="258.112,310.098 392.956,310.098 426.667,335.382 392.956,360.665 258.112,360.665 "/>
<polygon style="fill:#E09112;" points="258.112,335.095 258.112,360.665 392.956,360.665 426.667,335.382 426.286,335.095 "/>
<g>
</g>
<g>
</g>
<g>
</g>
<g>
</g>
<g>
</g>
<g>
</g>
<g>
</g>
<g>
</g>
<g>
</g>
<g>
</g>
<g>
</g>
<g>
</g>
<g>
</g>
<g>
</g>
<g>
</g>
</svg>
