<?xml version="1.0" encoding="iso-8859-1"?>
<!-- Generator: Adobe Illustrator 19.0.0, SVG Export Plug-In . SVG Version: 6.00 Build 0)  -->
<svg version="1.1" id="Layer_1" xmlns="http://www.w3.org/2000/svg" xmlns:xlink="http://www.w3.org/1999/xlink" x="0px" y="0px"
	 viewBox="0 0 512 512" style="enable-background:new 0 0 512 512;" xml:space="preserve">
<circle style="fill:#FEE187;" cx="256" cy="256" r="256"/>
<path style="fill:#FFC61B;" d="M306.048,507.095C423.471,483.821,512,380.256,512,256c0-4.165-0.109-8.304-0.305-12.419
	L404.952,136.838l-96.085,95.601v0.307l-150.48,126.688L306.048,507.095z"/>
<path style="fill:#273B7A;" d="M184.889,501.982C207.467,508.499,231.324,512,256,512c24.676,0,48.533-3.501,71.111-10.018V341.333
	H184.889V501.982z"/>
<path style="fill:#121149;" d="M255.426,341.333V511.99c0.191,0,0.383,0.01,0.574,0.01c24.676,0,48.533-3.501,71.111-10.018V341.333
	H255.426z"/>
<circle style="fill:#D35933;" cx="256" cy="256" r="142.222"/>
<path style="fill:#B54324;" d="M256,113.778c-0.193,0-0.381,0.014-0.574,0.014v284.415c0.193,0,0.381,0.014,0.574,0.014
	c78.546,0,142.222-63.676,142.222-142.222S334.546,113.778,256,113.778z"/>
<circle style="fill:#FFFFFF;" cx="256" cy="256" r="103.434"/>
<path style="fill:#D0D1D3;" d="M256,152.566c-0.193,0-0.381,0.014-0.574,0.014v206.839c0.193,0.002,0.381,0.014,0.574,0.014
	c57.125,0,103.434-46.309,103.434-103.434S313.125,152.566,256,152.566z"/>
<circle style="fill:#D35933;" cx="256" cy="256" r="62.923"/>
<path style="fill:#B54324;" d="M256,193.077c-0.193,0-0.383,0.012-0.574,0.014v125.816c0.191,0.002,0.381,0.014,0.574,0.014
	c34.75,0,62.923-28.172,62.923-62.923S290.751,193.077,256,193.077z"/>
<circle style="fill:#FFFFFF;" cx="256" cy="256" r="26.721"/>
<path style="fill:#D0D1D3;" d="M256,229.279c-0.193,0-0.381,0.024-0.574,0.029v53.382c0.193,0.003,0.381,0.029,0.574,0.029
	c14.757,0,26.721-11.964,26.721-26.721C282.721,241.243,270.757,229.279,256,229.279z"/>
<path style="fill:#273B7A;" d="M256.005,264.62c-2.529,0-5.034-1.107-6.735-3.236c-2.974-3.717-2.372-9.142,1.346-12.114
	l142.222-113.778c3.71-2.974,9.14-2.376,12.114,1.346c2.974,3.717,2.372,9.142-1.346,12.114L261.384,262.73
	C259.796,264.002,257.895,264.62,256.005,264.62z"/>
<path style="fill:#121149;" d="M404.394,136.268L249.18,261.246c0.034,0.045,0.055,0.095,0.09,0.138
	c1.701,2.129,4.206,3.236,6.735,3.236c1.889,0,3.791-0.617,5.379-1.889l142.222-113.778c3.718-2.974,4.32-8.397,1.346-12.114
	C404.783,136.626,404.58,136.459,404.394,136.268z"/>
<g>
</g>
<g>
</g>
<g>
</g>
<g>
</g>
<g>
</g>
<g>
</g>
<g>
</g>
<g>
</g>
<g>
</g>
<g>
</g>
<g>
</g>
<g>
</g>
<g>
</g>
<g>
</g>
<g>
</g>
</svg>
