<?xml version="1.0" encoding="iso-8859-1"?>
<!-- Generator: Adobe Illustrator 19.0.0, SVG Export Plug-In . SVG Version: 6.00 Build 0)  -->
<svg version="1.1" id="Layer_1" xmlns="http://www.w3.org/2000/svg" xmlns:xlink="http://www.w3.org/1999/xlink" x="0px" y="0px"
	 viewBox="0 0 512 512" style="enable-background:new 0 0 512 512;" xml:space="preserve">
<circle style="fill:#273B7A;" cx="256" cy="256" r="256"/>
<path style="fill:#121149;" d="M342.871,496.871c79.444-28.656,140.631-95.491,161.428-178.364L347.738,161.945l-4.467,5.051
	l-21.194-21.63l-20.999,20.83l-4.177-4.644l-65.017,15.946l-17.715,17.187l-25.56,16.91l-39.202-39.205l-15.372,19.682
	l33.478,33.478l-57.758,38.207L342.871,496.871z"/>
<path style="fill:#FFEDB5;" d="M119.939,249.809h51.067l5.439,5.439c9.949,9.949,23.44,15.536,37.509,15.536h93.394
	c5.792,0,10.488-4.696,10.488-10.488c0-5.792-4.696-10.488-10.488-10.488h-28.603v-2.719h70.554c5.768,0,10.488-4.72,10.488-10.488
	s-4.718-10.488-10.488-10.488h-70.554v-3.398h86.128c5.768,0,10.488-4.72,10.488-10.488s-4.718-10.488-10.488-10.488h-86.128v-3.398
	h70.554c5.768,0,10.488-4.72,10.488-10.488s-4.718-10.488-10.488-10.488h-60.271c-2.529,4.668-7.471,7.847-13.143,7.847h-20.975
	c-4.089,0-7.416,3.325-7.416,7.416v5.72c0,15.889-12.926,28.815-28.813,28.815h-17.587v-8.899h17.587
	c10.981,0,19.916-8.935,19.916-19.916v-5.72c0-8.995,7.318-16.313,16.315-16.313h20.975c3.329,0,6.039-2.708,6.039-6.039
	s-2.708-6.039-6.039-6.039h-61.93c-12.981,0-25.185,5.054-34.364,14.233l-6.74,6.742h-52.912L119.939,249.809z"/>
<path style="fill:#FEE187;" d="M364.872,222.718c2.798,0,5.344-1.117,7.23-2.919H237.854c-5.099,4.565-11.809,7.368-19.177,7.368
	H201.09v-7.37h-81.151v30.011h51.067l5.439,5.439c9.949,9.949,23.44,15.536,37.509,15.536h93.394
	c5.792,0,10.488-4.696,10.488-10.488c0-5.792-4.696-10.488-10.488-10.488h-28.603v-2.719h70.554c5.768,0,10.488-4.72,10.488-10.488
	s-4.718-10.488-10.488-10.488h-70.554v-3.398h86.126V222.718z"/>
<path style="fill:#EAA22F;" d="M264.859,243.655v65.71c0,13.348,5.303,26.15,14.743,35.588l6.978,6.977v36.357h66.889v-34.449
	l5.632-5.632c10.302-10.302,16.089-24.273,16.089-38.841v-96.256c0-5.947-4.582-11.133-10.526-11.311
	c-6.151-0.184-11.193,4.746-11.193,10.855v38.836h-2.815v-81.87c0-5.513-3.936-10.447-9.4-11.171
	c-6.616-0.876-12.319,4.31-12.319,10.764v82.277h-3.518v-97.995c0-5.513-3.934-10.447-9.4-11.171
	c-6.616-0.876-12.321,4.31-12.321,10.764v98.402h-3.518v-81.87c0-5.513-3.934-10.447-9.4-11.171
	c-6.616-0.876-12.321,4.31-12.321,10.764v62.412c4.836,2.619,8.126,7.737,8.126,13.61v45.242h-4.606v-46.823
	c0-4.725-3.831-8.557-8.557-8.557l0,0C268.691,235.098,264.859,238.93,264.859,243.655z"/>
<path style="fill:#E09112;" d="M364.663,201.8c-6.151-0.184-11.193,4.746-11.193,10.855v38.836h-2.815V169.62
	c0-5.513-3.936-10.447-9.4-11.171c-6.616-0.876-12.319,4.31-12.319,10.764v82.277h-3.518v-97.995c0-5.513-3.934-10.447-9.4-11.171
	c-0.278-0.036-0.552-0.048-0.826-0.064v246.027h38.281v-34.449l5.632-5.632c10.302-10.302,16.089-24.273,16.089-38.841v-96.256
	C375.189,207.163,370.607,201.978,364.663,201.8z"/>
<rect x="274.101" y="370.64" style="fill:#D35933;" width="91.367" height="39.65"/>
<rect x="315.182" y="370.64" style="fill:#B54324;" width="50.286" height="39.65"/>
<rect x="109.761" y="172.391" style="fill:#D35933;" width="39.65" height="91.367"/>
<rect x="109.761" y="219.798" style="fill:#B54324;" width="39.65" height="43.96"/>
<g>
</g>
<g>
</g>
<g>
</g>
<g>
</g>
<g>
</g>
<g>
</g>
<g>
</g>
<g>
</g>
<g>
</g>
<g>
</g>
<g>
</g>
<g>
</g>
<g>
</g>
<g>
</g>
<g>
</g>
</svg>
