<?xml version="1.0" encoding="iso-8859-1"?>
<!-- Generator: Adobe Illustrator 19.0.0, SVG Export Plug-In . SVG Version: 6.00 Build 0)  -->
<svg version="1.1" id="Layer_1" xmlns="http://www.w3.org/2000/svg" xmlns:xlink="http://www.w3.org/1999/xlink" x="0px" y="0px"
	 viewBox="0 0 512 512" style="enable-background:new 0 0 512 512;" xml:space="preserve">
<circle style="fill:#FFC61B;" cx="256" cy="256" r="256"/>
<path style="fill:#EAA22F;" d="M272.932,511.429c127.891-8.352,230.145-110.608,238.497-238.499l-136.48-136.478l-55.311,9.502
	l-34.563-34.563l-33.826,31.406H149.98v111.333l-40.357,29.298l32.327,32.327l-5.498,59.194L272.932,511.429z"/>
<path style="fill:#386895;" d="M377.539,256.003c0,0-0.003-0.022-0.003-0.035V142.222c0-4.284-3.474-7.758-7.758-7.758H142.222
	c-4.284,0-7.758,3.474-7.758,7.758v113.757c0,0-0.002,0.01-0.002,0.017c0,0,0.002,0.012,0.002,0.017v113.764
	c0,4.284,3.474,7.758,7.758,7.758h227.556c4.284,0,7.758-3.474,7.758-7.758v-113.74
	C377.535,256.038,377.539,256.016,377.539,256.003z M362.02,237.273l-87.292-87.293h87.292V237.273z M358.81,256.003
	L256.002,358.807l-102.81-102.81L256,153.193L358.81,256.003z M237.273,149.98l-87.293,87.288V149.98H237.273z M149.98,274.725
	l87.295,87.295H149.98V274.725z M274.73,362.02l87.29-87.287v87.287H274.73z"/>
<path style="fill:#273B7A;" d="M377.535,255.969V142.222c0-4.284-3.474-7.758-7.758-7.758H254.852v19.878l1.148-1.148l102.81,102.81
	L256.002,358.809l-1.15-1.15v19.877h114.926c4.284,0,7.758-3.474,7.758-7.758v-113.74c0,0,0.003-0.022,0.003-0.034
	C377.539,256.003,377.535,255.981,377.535,255.969z M362.02,362.02h-87.29l87.29-87.287V362.02z M362.02,237.273l-87.292-87.293
	h87.292V237.273z"/>
<g>
	<circle style="fill:#D35933;" cx="256" cy="137.051" r="38.788"/>
	<circle style="fill:#D35933;" cx="256" cy="374.949" r="38.788"/>
</g>
<g>
	<path style="fill:#B54324;" d="M256,98.263c-0.384,0-0.765,0.017-1.148,0.029v77.517c0.383,0.012,0.764,0.029,1.148,0.029
		c21.421,0,38.788-17.367,38.788-38.788C294.788,115.628,277.423,98.263,256,98.263z"/>
	<path style="fill:#B54324;" d="M256,336.162c-0.384,0-0.765,0.017-1.148,0.029v77.517c0.383,0.012,0.764,0.029,1.148,0.029
		c21.421,0,38.788-17.367,38.788-38.788C294.788,353.527,277.423,336.162,256,336.162z"/>
	<circle style="fill:#B54324;" cx="374.949" cy="256" r="38.788"/>
</g>
<circle style="fill:#D35933;" cx="137.051" cy="256" r="38.788"/>
<g>
</g>
<g>
</g>
<g>
</g>
<g>
</g>
<g>
</g>
<g>
</g>
<g>
</g>
<g>
</g>
<g>
</g>
<g>
</g>
<g>
</g>
<g>
</g>
<g>
</g>
<g>
</g>
<g>
</g>
</svg>
